<mxfile host="app.diagrams.net" modified="2022-03-12T05:06:53.018Z" agent="5.0 (Windows NT 10.0; Win64; x64) AppleWebKit/537.36 (KHTML, like Gecko) Chrome/99.0.4844.51 Safari/537.36" etag="FRUGTZCUOp7Q6WNHW7PR" version="17.1.2" type="github">
  <diagram id="C5RBs43oDa-KdzZeNtuy" name="Page-1">
    <mxGraphModel dx="1221" dy="578" grid="1" gridSize="10" guides="1" tooltips="1" connect="1" arrows="1" fold="1" page="1" pageScale="1" pageWidth="827" pageHeight="1169" math="0" shadow="0">
      <root>
        <mxCell id="WIyWlLk6GJQsqaUBKTNV-0" />
        <mxCell id="WIyWlLk6GJQsqaUBKTNV-1" parent="WIyWlLk6GJQsqaUBKTNV-0" />
        <mxCell id="nPlPMyPnGV62gzJP1ENc-0" value="" style="edgeStyle=orthogonalEdgeStyle;rounded=0;orthogonalLoop=1;jettySize=auto;html=1;" edge="1" parent="WIyWlLk6GJQsqaUBKTNV-1" source="nPlPMyPnGV62gzJP1ENc-1" target="nPlPMyPnGV62gzJP1ENc-3">
          <mxGeometry relative="1" as="geometry" />
        </mxCell>
        <mxCell id="nPlPMyPnGV62gzJP1ENc-1" value="用户账号登录" style="whiteSpace=wrap;html=1;rounded=0;glass=0;strokeWidth=1;shadow=0;" vertex="1" parent="WIyWlLk6GJQsqaUBKTNV-1">
          <mxGeometry x="160" y="350" width="120" height="60" as="geometry" />
        </mxCell>
        <mxCell id="nPlPMyPnGV62gzJP1ENc-2" value="" style="edgeStyle=orthogonalEdgeStyle;rounded=0;orthogonalLoop=1;jettySize=auto;html=1;" edge="1" parent="WIyWlLk6GJQsqaUBKTNV-1" source="nPlPMyPnGV62gzJP1ENc-3" target="nPlPMyPnGV62gzJP1ENc-5">
          <mxGeometry relative="1" as="geometry" />
        </mxCell>
        <mxCell id="nPlPMyPnGV62gzJP1ENc-3" value="填写认证信息&lt;br&gt;并提交申请" style="whiteSpace=wrap;html=1;rounded=0;glass=0;strokeWidth=1;shadow=0;" vertex="1" parent="WIyWlLk6GJQsqaUBKTNV-1">
          <mxGeometry x="160" y="450" width="120" height="60" as="geometry" />
        </mxCell>
        <mxCell id="nPlPMyPnGV62gzJP1ENc-4" value="" style="edgeStyle=orthogonalEdgeStyle;rounded=0;orthogonalLoop=1;jettySize=auto;html=1;" edge="1" parent="WIyWlLk6GJQsqaUBKTNV-1" source="nPlPMyPnGV62gzJP1ENc-5" target="nPlPMyPnGV62gzJP1ENc-9">
          <mxGeometry relative="1" as="geometry" />
        </mxCell>
        <mxCell id="nPlPMyPnGV62gzJP1ENc-5" value="管理员审批" style="whiteSpace=wrap;html=1;rounded=0;glass=0;strokeWidth=1;shadow=0;" vertex="1" parent="WIyWlLk6GJQsqaUBKTNV-1">
          <mxGeometry x="160" y="550" width="120" height="60" as="geometry" />
        </mxCell>
        <mxCell id="nPlPMyPnGV62gzJP1ENc-6" value="是" style="edgeStyle=orthogonalEdgeStyle;rounded=0;orthogonalLoop=1;jettySize=auto;html=1;" edge="1" parent="WIyWlLk6GJQsqaUBKTNV-1" source="nPlPMyPnGV62gzJP1ENc-9" target="nPlPMyPnGV62gzJP1ENc-11">
          <mxGeometry relative="1" as="geometry" />
        </mxCell>
        <mxCell id="nPlPMyPnGV62gzJP1ENc-7" style="edgeStyle=orthogonalEdgeStyle;rounded=0;orthogonalLoop=1;jettySize=auto;html=1;entryX=1;entryY=0.5;entryDx=0;entryDy=0;" edge="1" parent="WIyWlLk6GJQsqaUBKTNV-1" source="nPlPMyPnGV62gzJP1ENc-9" target="nPlPMyPnGV62gzJP1ENc-3">
          <mxGeometry relative="1" as="geometry">
            <Array as="points">
              <mxPoint x="330" y="690" />
              <mxPoint x="330" y="480" />
            </Array>
          </mxGeometry>
        </mxCell>
        <mxCell id="nPlPMyPnGV62gzJP1ENc-8" value="否" style="edgeLabel;html=1;align=center;verticalAlign=middle;resizable=0;points=[];" vertex="1" connectable="0" parent="nPlPMyPnGV62gzJP1ENc-7">
          <mxGeometry x="0.0085" y="-2" relative="1" as="geometry">
            <mxPoint as="offset" />
          </mxGeometry>
        </mxCell>
        <mxCell id="nPlPMyPnGV62gzJP1ENc-9" value="审批通过" style="rhombus;whiteSpace=wrap;html=1;rounded=0;glass=0;strokeWidth=1;shadow=0;" vertex="1" parent="WIyWlLk6GJQsqaUBKTNV-1">
          <mxGeometry x="160" y="650" width="120" height="80" as="geometry" />
        </mxCell>
        <mxCell id="nPlPMyPnGV62gzJP1ENc-10" value="" style="edgeStyle=orthogonalEdgeStyle;rounded=0;orthogonalLoop=1;jettySize=auto;html=1;" edge="1" parent="WIyWlLk6GJQsqaUBKTNV-1" source="nPlPMyPnGV62gzJP1ENc-11" target="nPlPMyPnGV62gzJP1ENc-12">
          <mxGeometry relative="1" as="geometry" />
        </mxCell>
        <mxCell id="nPlPMyPnGV62gzJP1ENc-11" value="创建对应&lt;br&gt;用户角色" style="whiteSpace=wrap;html=1;rounded=0;glass=0;strokeWidth=1;shadow=0;" vertex="1" parent="WIyWlLk6GJQsqaUBKTNV-1">
          <mxGeometry x="160" y="780" width="120" height="60" as="geometry" />
        </mxCell>
        <mxCell id="nPlPMyPnGV62gzJP1ENc-12" value="结束" style="ellipse;whiteSpace=wrap;html=1;rounded=1;glass=0;strokeWidth=1;shadow=0;" vertex="1" parent="WIyWlLk6GJQsqaUBKTNV-1">
          <mxGeometry x="160" y="870" width="120" height="60" as="geometry" />
        </mxCell>
        <mxCell id="nPlPMyPnGV62gzJP1ENc-13" value="" style="edgeStyle=orthogonalEdgeStyle;rounded=0;orthogonalLoop=1;jettySize=auto;html=1;" edge="1" parent="WIyWlLk6GJQsqaUBKTNV-1" source="nPlPMyPnGV62gzJP1ENc-14" target="nPlPMyPnGV62gzJP1ENc-1">
          <mxGeometry relative="1" as="geometry" />
        </mxCell>
        <mxCell id="nPlPMyPnGV62gzJP1ENc-14" value="开始" style="strokeWidth=2;html=1;shape=mxgraph.flowchart.start_1;whiteSpace=wrap;strokeColor=#666666;" vertex="1" parent="WIyWlLk6GJQsqaUBKTNV-1">
          <mxGeometry x="165" y="240" width="110" height="60" as="geometry" />
        </mxCell>
        <mxCell id="nPlPMyPnGV62gzJP1ENc-15" value="" style="edgeStyle=orthogonalEdgeStyle;rounded=0;orthogonalLoop=1;jettySize=auto;html=1;" edge="1" parent="WIyWlLk6GJQsqaUBKTNV-1" source="nPlPMyPnGV62gzJP1ENc-16" target="nPlPMyPnGV62gzJP1ENc-18">
          <mxGeometry relative="1" as="geometry" />
        </mxCell>
        <mxCell id="nPlPMyPnGV62gzJP1ENc-16" value="用户举报" style="whiteSpace=wrap;html=1;rounded=0;glass=0;strokeWidth=1;shadow=0;" vertex="1" parent="WIyWlLk6GJQsqaUBKTNV-1">
          <mxGeometry x="470" y="350" width="120" height="60" as="geometry" />
        </mxCell>
        <mxCell id="nPlPMyPnGV62gzJP1ENc-17" value="" style="edgeStyle=orthogonalEdgeStyle;rounded=0;orthogonalLoop=1;jettySize=auto;html=1;" edge="1" parent="WIyWlLk6GJQsqaUBKTNV-1" source="nPlPMyPnGV62gzJP1ENc-18" target="nPlPMyPnGV62gzJP1ENc-20">
          <mxGeometry relative="1" as="geometry" />
        </mxCell>
        <mxCell id="nPlPMyPnGV62gzJP1ENc-18" value="填写举报信息&lt;br&gt;并提交举报" style="whiteSpace=wrap;html=1;rounded=0;glass=0;strokeWidth=1;shadow=0;" vertex="1" parent="WIyWlLk6GJQsqaUBKTNV-1">
          <mxGeometry x="470" y="450" width="120" height="60" as="geometry" />
        </mxCell>
        <mxCell id="nPlPMyPnGV62gzJP1ENc-19" value="" style="edgeStyle=orthogonalEdgeStyle;rounded=0;orthogonalLoop=1;jettySize=auto;html=1;" edge="1" parent="WIyWlLk6GJQsqaUBKTNV-1" source="nPlPMyPnGV62gzJP1ENc-20" target="nPlPMyPnGV62gzJP1ENc-24">
          <mxGeometry relative="1" as="geometry" />
        </mxCell>
        <mxCell id="nPlPMyPnGV62gzJP1ENc-20" value="管理员审批" style="whiteSpace=wrap;html=1;rounded=0;glass=0;strokeWidth=1;shadow=0;" vertex="1" parent="WIyWlLk6GJQsqaUBKTNV-1">
          <mxGeometry x="470" y="550" width="120" height="60" as="geometry" />
        </mxCell>
        <mxCell id="nPlPMyPnGV62gzJP1ENc-21" value="是" style="edgeStyle=orthogonalEdgeStyle;rounded=0;orthogonalLoop=1;jettySize=auto;html=1;" edge="1" parent="WIyWlLk6GJQsqaUBKTNV-1" source="nPlPMyPnGV62gzJP1ENc-24" target="nPlPMyPnGV62gzJP1ENc-26">
          <mxGeometry relative="1" as="geometry" />
        </mxCell>
        <mxCell id="nPlPMyPnGV62gzJP1ENc-22" style="edgeStyle=orthogonalEdgeStyle;rounded=0;orthogonalLoop=1;jettySize=auto;html=1;entryX=1;entryY=0.5;entryDx=0;entryDy=0;" edge="1" parent="WIyWlLk6GJQsqaUBKTNV-1" source="nPlPMyPnGV62gzJP1ENc-24" target="nPlPMyPnGV62gzJP1ENc-16">
          <mxGeometry relative="1" as="geometry">
            <Array as="points">
              <mxPoint x="640" y="690" />
              <mxPoint x="640" y="380" />
            </Array>
          </mxGeometry>
        </mxCell>
        <mxCell id="nPlPMyPnGV62gzJP1ENc-23" value="否" style="edgeLabel;html=1;align=center;verticalAlign=middle;resizable=0;points=[];" vertex="1" connectable="0" parent="nPlPMyPnGV62gzJP1ENc-22">
          <mxGeometry x="0.0085" y="-2" relative="1" as="geometry">
            <mxPoint as="offset" />
          </mxGeometry>
        </mxCell>
        <mxCell id="nPlPMyPnGV62gzJP1ENc-24" value="属实" style="rhombus;whiteSpace=wrap;html=1;rounded=0;glass=0;strokeWidth=1;shadow=0;" vertex="1" parent="WIyWlLk6GJQsqaUBKTNV-1">
          <mxGeometry x="470" y="650" width="120" height="80" as="geometry" />
        </mxCell>
        <mxCell id="nPlPMyPnGV62gzJP1ENc-25" value="" style="edgeStyle=orthogonalEdgeStyle;rounded=0;orthogonalLoop=1;jettySize=auto;html=1;" edge="1" parent="WIyWlLk6GJQsqaUBKTNV-1" source="nPlPMyPnGV62gzJP1ENc-26" target="nPlPMyPnGV62gzJP1ENc-27">
          <mxGeometry relative="1" as="geometry" />
        </mxCell>
        <mxCell id="nPlPMyPnGV62gzJP1ENc-26" value="选择相应封禁类型&lt;br&gt;进行封禁" style="whiteSpace=wrap;html=1;rounded=0;glass=0;strokeWidth=1;shadow=0;" vertex="1" parent="WIyWlLk6GJQsqaUBKTNV-1">
          <mxGeometry x="470" y="780" width="120" height="60" as="geometry" />
        </mxCell>
        <mxCell id="nPlPMyPnGV62gzJP1ENc-27" value="结束" style="ellipse;whiteSpace=wrap;html=1;rounded=1;glass=0;strokeWidth=1;shadow=0;" vertex="1" parent="WIyWlLk6GJQsqaUBKTNV-1">
          <mxGeometry x="470" y="870" width="120" height="60" as="geometry" />
        </mxCell>
        <mxCell id="nPlPMyPnGV62gzJP1ENc-28" value="" style="edgeStyle=orthogonalEdgeStyle;rounded=0;orthogonalLoop=1;jettySize=auto;html=1;" edge="1" parent="WIyWlLk6GJQsqaUBKTNV-1" source="nPlPMyPnGV62gzJP1ENc-29" target="nPlPMyPnGV62gzJP1ENc-16">
          <mxGeometry relative="1" as="geometry" />
        </mxCell>
        <mxCell id="nPlPMyPnGV62gzJP1ENc-29" value="开始" style="strokeWidth=2;html=1;shape=mxgraph.flowchart.start_1;whiteSpace=wrap;strokeColor=#666666;" vertex="1" parent="WIyWlLk6GJQsqaUBKTNV-1">
          <mxGeometry x="475" y="240" width="110" height="60" as="geometry" />
        </mxCell>
      </root>
    </mxGraphModel>
  </diagram>
</mxfile>
